<?xml version="1.0" standalone="no"?>
<svg xmlns="http://www.w3.org/2000/svg" viewBox="0 0 99 61" width="99" height="61"><g fill="#ead017" color="#ead017" transform="translate(35.172 0) scale(0.6458334) "><svg width="44.0" height="48.0" x="0.0" y="0.0" viewBox="0 0 44 48"><path fill="currentColor" fill-rule="evenodd" d="M26.592 7.876c-1.442 3.958-2.352 9.744-2.352 16.195 0 6.393.894 12.136 2.311 16.09-.691.939-1.454 1.46-2.256 1.46-3.13-.003-5.665-7.895-5.665-17.634 0-9.734 2.535-17.63 5.661-17.63.82.001 1.599.546 2.3 1.52M37.084 24.07c.003 6.693-1.663 12.123-3.716 12.123s-3.717-5.43-3.717-12.121c0-6.696 1.664-12.124 3.717-12.127 2.056.003 3.719 5.43 3.716 12.125M21.51 0c2.12.002 4.037 2.67 5.43 6.98 1.172-2.82 2.642-4.504 4.238-4.504 3.83-.005 6.936 9.668 6.934 21.594.002 11.926-3.106 21.597-6.937 21.596-1.607 0-3.089-1.711-4.265-4.573-1.389 4.256-3.296 6.882-5.397 6.884-4.257-.002-7.708-10.74-7.708-23.99C13.805 10.745 17.257 0 21.51 0zm-6.145 2.36c-5.194 4.504-8.651 12.467-8.651 21.535 0 9.067 3.455 17.03 8.655 21.531C6.292 41.661-.003 33.435 0 23.894 0 14.356 6.292 6.129 15.365 2.361zm26.647 14.91c1.098 0 1.986 2.9 1.988 6.483-.002 3.577-.891 6.48-1.99 6.48-1.096 0-1.985-2.9-1.987-6.482-.002-3.58.891-6.482 1.99-6.482z"></path></svg></g><line x1="36.024166666666666" y1="37" x2="62.73583333333333" y2="37" stroke="#000000" stroke-linecap="round"></line><path fill="#000000" fill-rule="nonzero" d="M0 0.46L1.46 0.46L1.46 16.87L0 16.87L0 0.46ZM17.04 0.46L17.04 1.82L11.30 1.82L11.30 16.87L9.84 16.87L9.84 1.82L4.10 1.82L4.10 0.46L17.04 0.46ZM30.24 10.87L29.88 11.95Q29.02 11.78 28.30 11.44Q27.58 11.09 26.98 10.67Q26.38 10.25 25.90 9.78Q25.42 9.31 25.06 8.88L25.06 8.88L22.70 5.98Q22.30 5.50 21.83 4.82Q21.36 4.15 20.95 3.50L20.95 3.50Q21.02 4.10 21.08 4.76Q21.14 5.42 21.14 5.98L21.14 5.98L21.14 16.87L19.68 16.87L19.68 0.24L20.14 0.24L26.52 8.38Q26.69 8.64 27.02 8.95L27.02 8.95L34.20 0.24L34.66 0.24L34.66 16.87L33.19 16.87L33.19 5.98Q33.19 5.38 33.25 4.62Q33.31 3.86 33.38 3.24L33.38 3.24Q32.88 3.94 32.33 4.69Q31.78 5.45 31.32 5.98L31.32 5.98L28.06 9.84Q28.54 10.18 29.08 10.45Q29.62 10.73 30.24 10.87L30.24 10.87ZM44.30 0L44.76 0L51.94 16.87L50.40 16.87L48.07 11.42L40.99 11.42L38.71 16.87L37.18 16.87L44.30 0ZM43.94 4.46L41.57 10.06L47.50 10.06L45.12 4.46Q44.93 4.01 44.77 3.49Q44.62 2.98 44.52 2.59L44.52 2.59Q44.42 3 44.28 3.52Q44.14 4.03 43.94 4.46L43.94 4.46ZM55.08 8.66L53.62 8.66Q53.62 6.86 54.19 5.33Q54.77 3.79 55.80 2.65Q56.83 1.51 58.28 0.86Q59.74 0.22 61.49 0.22L61.49 0.22Q64.08 0.22 65.38 1.13Q66.67 2.04 66.67 3.55L66.67 3.55Q66.67 4.22 66.38 4.79Q66.10 5.35 65.46 5.77Q64.82 6.19 63.84 6.42Q62.86 6.65 61.49 6.65L61.49 6.65L55.30 6.65Q55.08 7.58 55.08 8.66L55.08 8.66ZM61.49 1.54L61.49 1.54Q59.45 1.54 57.95 2.57Q56.45 3.60 55.68 5.40L55.68 5.40L61.49 5.40Q62.57 5.40 63.28 5.28Q63.98 5.16 64.40 4.92Q64.82 4.68 64.99 4.33Q65.16 3.98 65.16 3.55L65.16 3.55Q65.16 2.54 64.22 2.04Q63.29 1.54 61.49 1.54ZM60.53 17.11L60.53 17.11Q58.75 17.11 57.44 16.46Q56.14 15.82 55.28 14.68Q54.43 13.54 54.02 11.99Q53.62 10.44 53.62 8.66L53.62 8.66L55.08 8.66Q55.08 10.25 55.43 11.56Q55.78 12.86 56.46 13.80Q57.14 14.74 58.16 15.26Q59.18 15.79 60.53 15.79L60.53 15.79Q61.27 15.79 62.08 15.59Q62.88 15.38 63.61 15.10Q64.34 14.81 64.94 14.48Q65.54 14.16 65.93 13.92L65.93 13.92L66.55 15Q66.19 15.29 65.58 15.66Q64.97 16.03 64.18 16.36Q63.38 16.68 62.46 16.90Q61.54 17.11 60.53 17.11ZM79.22 15.50L79.22 16.87L69.91 16.87L69.91 0.46L71.38 0.46L71.38 15.50L79.22 15.50ZM81.98 0.46L83.45 0.46L83.45 16.87L81.98 16.87L81.98 0.46ZM97.08 7.70L97.08 9.07L89.47 9.07L89.47 16.87L88.01 16.87L88.01 0.46L98.76 0.46L98.76 1.82L89.47 1.82L89.47 7.70L97.08 7.70Z" transform="translate(0, 43)"></path></svg>